<?xml version="1.0" encoding="UTF-8"?>
<svg width="32" height="32" viewBox="0 0 32 32" xmlns="http://www.w3.org/2000/svg">
  <!-- 背景圆形 -->
  <circle cx="16" cy="16" r="14" fill="#FFB6C1" stroke="#FF69B4" stroke-width="1"/>
  
  <!-- 主体脸部 -->
  <circle cx="16" cy="16" r="12" fill="#FFC0CB"/>
  
  <!-- 眼睛 -->
  <circle cx="12" cy="13" r="1.5" fill="#000"/>
  <circle cx="20" cy="13" r="1.5" fill="#000"/>
  
  <!-- 眼睛高光 -->
  <circle cx="12.5" cy="12.5" r="0.5" fill="#FFF"/>
  <circle cx="20.5" cy="12.5" r="0.5" fill="#FFF"/>
  
  <!-- 嘴巴 (微笑弧线) -->
  <path d="M 13 19 Q 16 22 19 19" stroke="#FF69B4" stroke-width="1.5" fill="none" stroke-linecap="round"/>
  
  <!-- 腮红 -->
  <circle cx="9" cy="17" r="2" fill="#FFB6C1" opacity="0.6"/>
  <circle cx="23" cy="17" r="2" fill="#FFB6C1" opacity="0.6"/>
  
  <!-- 头顶装饰 (小天线) -->
  <line x1="16" y1="4" x2="16" y2="7" stroke="#FFD700" stroke-width="1.5" stroke-linecap="round"/>
  <circle cx="16" cy="3" r="1.5" fill="#FFD700"/>
  
  <!-- 小星星装饰 -->
  <g transform="translate(24,8)">
    <path d="M 0,-2 L 0.6,-0.6 L 2,0 L 0.6,0.6 L 0,2 L -0.6,0.6 L -2,0 L -0.6,-0.6 Z" fill="#FFD700" opacity="0.8"/>
  </g>
  
  <!-- 另一个小星星 -->
  <g transform="translate(6,6)">
    <path d="M 0,-1.5 L 0.4,-0.4 L 1.5,0 L 0.4,0.4 L 0,1.5 L -0.4,0.4 L -1.5,0 L -0.4,-0.4 Z" fill="#FFD700" opacity="0.6"/>
  </g>
</svg>
